<?xml version="1.0" encoding="UTF-8"?>
<svg width="148px" height="192px" viewBox="0 0 148 192" version="1.1" xmlns="http://www.w3.org/2000/svg" xmlns:xlink="http://www.w3.org/1999/xlink">
    <title>Group 10 Copy</title>
    <g id="Symbols" stroke="none" stroke-width="1" fill="none" fill-rule="evenodd">
        <g id="menu" transform="translate(-878.000000, -46.000000)">
            <g id="Group-10-Copy" transform="translate(878.000000, 46.000000)">
                <circle id="Oval" fill="#FFFFFF" cx="74" cy="105" r="57"></circle>
                <g id="Kaap_Noord_Texel_Jan_def-Copy">
                    <path d="M106.269636,101.507502 L113.322973,111.527204 L113.322973,83.6595778 C113.322973,71.1287816 119.415137,68.6047615 123.448497,66.935007 C125.849052,65.9420848 126.688,65.4861631 126.688,64.2699802 C126.688,61.7565357 121.848918,61.6296296 120.880627,61.6296296 L98.7119822,61.6296296 C97.7413179,61.6296296 92.904609,61.7565357 92.904609,64.2699802 C92.904609,65.4861631 93.7459305,65.9420848 96.1441122,66.935007 C100.175099,68.6047615 106.269636,71.1287816 106.269636,83.6595778 L106.269636,101.507502 Z M90.838684,155.255734 L113.322973,155.255734 L113.322973,125.791207 L66.4830781,61.6296296 L24.7931633,61.6437303 C20.3444828,61.8011878 18.085137,62.2712102 18.085137,64.3980613 C18.085137,66.0466648 18.854074,66.4391335 21.8811702,67.2792984 L22.0935772,67.3380512 C27.2827156,68.699941 28.6603944,70.6505338 30.7441189,73.5999241 C30.9944981,73.9559661 31.2591168,74.3296339 31.5450949,74.7244526 L90.838684,155.255734 Z M25.035236,155.255734 L44.4058042,155.259259 C47.3640758,155.259259 50.8919305,154.823314 50.8919305,152.745815 C50.8919305,151.613061 50.3437068,151.274645 48.1816647,150.423904 C44.7653534,149.080815 39.602321,147.051494 37.8662795,136.376111 L37.8520399,136.179877 L37.8520399,97.789625 L30.7987039,87.868628 L30.7832777,136.376111 C29.0496095,147.051494 23.886577,149.080815 20.4702657,150.423904 C18.3082236,151.274645 17.76,151.613061 17.76,152.745815 C17.76,154.823314 21.2878546,155.259259 24.2461263,155.259259 L25.035236,155.255734 L25.035236,155.255734 Z" id="Fill-1" fill="#74C1C2"></path>
                    <polyline id="Fill-2" fill="#FFFFFF" points="35.52 67.7148353 43.7676889 67.5555556 94.72 139.370678 94.6815085 149.333333 35.52 67.7148353"></polyline>
                    <path d="M42.624,149.333333 L33.152,149.333333 C33.152,149.333333 36.7817259,143.95025 37.7431128,135.111111 C37.7431128,135.111111 39.4047878,145.537493 42.624,149.333333" id="Fill-3" fill="#74C1C2"></path>
                    <path d="M104.192,68.7407407 L113.664,68.7407407 C113.664,68.7407407 110.033343,74.125012 109.073619,82.962963 C109.073619,82.962963 107.410699,72.5377687 104.192,68.7407407" id="Fill-4" fill="#74C1C2"></path>
                    <path d="M73.0009627,0 C73.0009627,0 75.5068278,15.1702417 82.88,32 C82.88,32 76.1706667,28.6784842 73.296143,25.7156821 C73.296143,25.7156821 69.2396314,29.2556534 62.752,31.928009 C62.752,31.928009 71.5263283,11.7022614 73.0009627,0" id="Fill-5" fill="#74C1C2"></path>
                    <path d="M139.712,40.2962963 C139.712,40.2962963 135.409727,46.3109657 132.1551,54.5185185 C132.1551,54.5185185 131.052726,51.141388 131.106337,49.1691438 C131.106337,49.1691438 128.560937,49.0205501 125.504,47.7642575 C125.504,47.7642575 135.262297,43.7961292 139.712,40.2962963" id="Fill-6" fill="#74C1C2"></path>
                    <path d="M7.104,40.2962963 C7.104,40.2962963 13.1128281,44.6036554 21.312,47.8612843 C21.312,47.8612843 17.9387806,48.9635569 15.9676961,48.9098965 C15.9676961,48.9098965 15.8192745,51.4576441 14.5644368,54.5185185 C14.5644368,54.5185185 10.5997797,44.7501033 7.104,40.2962963" id="Fill-7" fill="#74C1C2"></path>
                    <path d="M7.104,171.851852 C7.104,171.851852 11.4070517,165.836533 14.6603062,157.62963 C14.6603062,157.62963 15.7625933,161.006493 15.7089866,162.978581 C15.7089866,162.978581 18.2541864,163.128289 21.312,164.383356 C21.312,164.383356 11.5533532,168.352296 7.104,171.851852" id="Fill-8" fill="#74C1C2"></path>
                    <path d="M139.712,171.851852 C139.712,171.851852 133.702696,167.544493 125.504,164.286864 C125.504,164.286864 128.877486,163.184591 130.847602,163.237134 C130.847602,163.237134 130.99716,160.689386 132.250973,157.62963 C132.250973,157.62963 136.214819,167.396927 139.712,171.851852" id="Fill-9" fill="#74C1C2"></path>
                    <path d="M86.7714285,158.84352 C83.0084158,159.837625 79.0821025,160.415817 75.0433722,160.530013 L75.0433722,136.783276 L72.0850289,132.740741 L72.0850289,160.530013 C66.5825103,160.374947 61.2918091,159.355599 56.3359923,157.600588 L55.0213045,158.402363 C60.3628893,160.406201 66.1032587,161.567393 72.0850289,161.732075 L72.0850289,163.53036 C65.4192897,163.352455 59.0446515,161.976094 53.1622816,159.602021 L43.808,159.676549 C51.9103107,164.21794 62.2503123,167.492357 72.0850289,167.737578 L72.0850289,190.497422 C72.0850289,191.328047 72.7465144,192 73.5642005,192 C74.3807033,192 75.0433722,191.328047 75.0433722,190.497422 L75.0433722,167.737578 C85.1940398,167.485145 94.7210887,164.644672 103.008,159.834019 L93.5685181,159.759491 C87.7961986,162.036197 81.5588275,163.356061 75.0433722,163.53036 L75.0433722,161.732075 C79.4335537,161.610667 83.6923847,160.951937 87.7618818,159.815988 L86.7714285,158.84352" id="Fill-10" fill="#74C1C2"></path>
                    <path d="M71.3681382,51.8895265 L71.3681382,53.6444502 C64.6879393,53.8274503 58.3117564,55.2550854 52.4690576,57.7220671 L55.7328619,57.7220671 C60.64837,55.9788741 65.9028386,54.9700276 71.3681382,54.8175276 L71.3681382,61.2061068 L74.2801691,65.1851852 L74.2801691,54.8175276 C80.7751629,55.0005276 86.9754591,56.3847589 92.6620731,58.7790098 C93.1361517,58.5561251 93.6649765,58.3613942 94.2520419,58.2030288 C88.1193048,55.4474701 81.3727116,53.839181 74.2801691,53.6444502 L74.2801691,51.8895265 C82.5596554,52.108892 90.3813704,54.1934504 97.3516076,57.7467017 C97.6649422,57.7314517 97.9782767,57.7173748 98.311413,57.7173748 L105.376,57.7173748 C96.4372299,51.6807187 85.7617246,48.0676405 74.2801691,47.7837558 L74.2801691,33.4651736 C74.2801691,32.6569233 73.6278742,32 72.8241537,32 C72.0192683,32 71.3681382,32.6569233 71.3681382,33.4651736 L71.3681382,47.7837558 C59.8784291,48.0676405 49.1982645,51.6830649 40.256,57.7267594 L48.3374682,57.7244132 C55.2972221,54.1852389 63.1037945,52.108892 71.3681382,51.8895265" id="Fill-11" fill="#74C1C2"></path>
                    <path d="M32.6801069,74.7500824 C32.5775214,74.6121134 32.4954531,74.4967428 32.4001089,74.3670996 C26.1448096,82.8688428 22.3503545,93.2295989 22.0401844,104.438388 L20.2346803,104.438388 C20.5508849,92.6301475 24.603614,81.7234624 31.2873584,72.8423045 C30.3037449,71.5090009 29.5373711,70.6229071 28.2278979,69.9259259 C20.8236415,79.5801858 16.3328121,91.5085549 16.0105731,104.438388 L1.50860971,104.438388 C0.675857148,104.438388 0,105.105635 0,105.925123 C0,106.74699 0.675857148,107.411858 1.50860971,107.411858 L16.0105731,107.411858 C16.323157,119.952761 20.5617468,131.543345 27.5701441,141.037037 C28.4777237,140.154511 29.3104762,138.947283 29.9971954,137.222671 C24.0834453,128.682867 20.5303678,118.44105 20.2346803,107.411858 L22.0401844,107.411858 C22.3213892,117.570418 25.4641249,127.029618 30.7068454,135.041334 C30.8408099,134.533465 30.9651194,133.989915 31.0785668,133.410683 C26.3379117,125.800981 23.5162081,116.916255 23.2470721,107.411858 L31.2089107,107.411858 L31.2101176,104.438388 L23.2470721,104.438388 C23.5536216,93.6268544 27.1754918,83.6229145 33.152,75.3745109 L32.6801069,74.7500824" id="Fill-12" fill="#74C1C2"></path>
                    <path d="M53.28,106.074074 C53.28,105.094163 52.6217643,104.296296 51.8080955,104.296296 L43.808,104.296296 L43.808,107.851852 L51.8080955,107.851852 C52.6217643,107.851852 53.28,107.05683 53.28,106.074074" id="Fill-13" fill="#74C1C2"></path>
                    <path d="M146.50695,103.976509 L131.826084,103.976509 C131.509557,91.2465426 127.178517,79.4882302 120.017847,69.9259259 C118.978684,70.7184345 118.048215,71.793304 117.345884,73.353407 C123.57489,82.0472737 127.342155,92.5871635 127.645543,103.976509 L125.85866,103.976509 C125.568411,93.4259413 122.219201,83.620427 116.636387,75.4224713 C116.506193,75.9409238 116.39511,76.5020863 116.305527,77.1023997 C121.35562,84.9017283 124.38711,94.1009973 124.66422,103.976509 L116.032,103.976509 L116.032,106.942484 L124.66422,106.942484 C124.381138,116.998326 121.249315,126.351826 116.032,134.238948 L116.032,136.342417 C121.968368,127.974808 125.557661,117.863205 125.85866,106.942484 L127.645543,106.942484 C127.32185,119.11366 123.043365,130.315555 116.032,139.33212 L116.032,145.777778 C125.540939,135.489403 131.454613,121.889813 131.826084,106.942484 L146.50695,106.942484 C147.331113,106.942484 148,106.279292 148,105.459496 C148,104.642073 147.331113,103.976509 146.50695,103.976509" id="Fill-14" fill="#74C1C2"></path>
                    <path d="M116.032,150.518519 L116.032,152.783863 L125.16,160.949145 C125.334322,161.105081 125.563566,161.185185 125.792811,161.185185 C126.02325,161.185185 126.251301,161.105081 126.425622,160.949145 C126.775459,160.636205 126.775459,160.128879 126.425622,159.815938 L116.032,150.518519" id="Fill-15" fill="#74C1C2"></path>
                    <path d="M18.0695402,159.758057 C17.6568199,160.084736 17.6568199,160.614334 18.0695402,160.941013 C18.275196,161.103794 18.5456475,161.185185 18.816099,161.185185 C19.0865505,161.185185 19.357002,161.103794 19.5626578,160.941013 L23.68,157.750044 C22.6517209,157.743354 21.7037321,157.703216 20.8444852,157.62963 L18.0695402,159.758057" id="Fill-16" fill="#74C1C2"></path>
                    <path d="M57.7667766,123.695583 C58.0990745,123.324409 58.0990745,122.722677 57.7667766,122.351504 C57.4344788,121.981597 56.8957707,121.981597 56.5646071,122.351504 L43.808,136.601777 C43.9781183,137.350458 44.1618461,138.045933 44.3637199,138.666667 L57.7667766,123.695583" id="Fill-17" fill="#74C1C2"></path>
                    <path d="M21.4936539,58.0740741 C22.2545606,57.9499921 22.9975373,57.883905 23.68,57.8447922 L19.1941243,52.4445287 C18.8657801,52.0493546 18.3346022,52.0493546 18.0062581,52.4445287 C17.677914,52.8397029 17.677914,53.4803435 18.0062581,53.8755176 L21.4936539,58.0740741" id="Fill-18" fill="#74C1C2"></path>
                    <path d="M127.623863,53.8937935 C127.954712,53.4944384 127.954712,52.8470196 127.623863,52.4476645 C127.294143,52.0483094 126.757783,52.0483094 126.426934,52.4476645 L121.952,57.8491812 C122.753717,57.870989 123.487683,57.9473163 124.160673,58.0740741 L127.623863,53.8937935" id="Fill-19" fill="#74C1C2"></path>
                    <path d="M92.162339,87.7037037 L101.824,78.8256425 C101.719042,78.178009 101.590883,77.5740247 101.426264,77.037037 L91.168,86.4642671 L92.162339,87.7037037" id="Fill-20" fill="#74C1C2"></path>
                </g>
            </g>
        </g>
    </g>
</svg>